<svg width="100" height="100" viewBox="0 0 100 100" fill="none" xmlns="http://www.w3.org/2000/svg">
<path d="M30.5351 69H17.2558V31.5399H30.6449C34.4128 31.5399 37.6565 32.2898 40.3757 33.7897C43.095 35.2773 45.1863 37.4174 46.6496 40.2098C48.1251 43.0023 48.8628 46.3434 48.8628 50.2333C48.8628 54.1354 48.1251 57.4888 46.6496 60.2934C45.1863 63.0981 43.0828 65.2503 40.3392 66.7502C37.6077 68.2501 34.3397 69 30.5351 69ZM25.1759 62.214H30.2059C32.5472 62.214 34.5165 61.7994 36.1139 60.9702C37.7235 60.1288 38.9307 58.8302 39.7356 57.0742C40.5526 55.3061 40.9611 53.0258 40.9611 50.2333C40.9611 47.4653 40.5526 45.2033 39.7356 43.4474C38.9307 41.6914 37.7296 40.3988 36.1322 39.5696C34.5348 38.7405 32.5654 38.3259 30.2242 38.3259H25.1759V62.214ZM75.0511 42.3133C74.9047 40.8378 74.2767 39.6916 73.1671 38.8746C72.0574 38.0576 70.5515 37.6491 68.6492 37.6491C67.3566 37.6491 66.2652 37.832 65.3751 38.1978C64.4849 38.5514 63.802 39.0453 63.3265 39.6794C62.8631 40.3135 62.6314 41.0329 62.6314 41.8377C62.607 42.5084 62.7473 43.0937 63.0521 43.5937C63.3692 44.0936 63.802 44.5265 64.3508 44.8924C64.8995 45.246 65.5336 45.5569 66.253 45.8252C66.9725 46.0813 67.7407 46.3008 68.5577 46.4837L71.9233 47.2885C73.5573 47.6543 75.0572 48.1421 76.4229 48.7518C77.7886 49.3615 78.9714 50.1114 79.9714 51.0016C80.9713 51.8917 81.7456 52.9404 82.2943 54.1476C82.8553 55.3549 83.1418 56.7389 83.154 58.2997C83.1418 60.5922 82.5565 62.5798 81.3981 64.2626C80.2518 65.9332 78.5934 67.2319 76.4229 68.1586C74.2645 69.0732 71.6611 69.5304 68.6126 69.5304C65.5885 69.5304 62.9546 69.0671 60.7109 68.1403C58.4793 67.2136 56.7356 65.8417 55.4796 64.0248C54.2358 62.1957 53.5834 59.9337 53.5225 57.2388H61.1864C61.2718 58.4948 61.6315 59.5435 62.2656 60.3849C62.9119 61.2141 63.7716 61.8421 64.8446 62.2689C65.9299 62.6835 67.1554 62.8908 68.5211 62.8908C69.8625 62.8908 71.027 62.6957 72.0147 62.3055C73.0147 61.9153 73.789 61.3726 74.3377 60.6776C74.8864 59.9825 75.1608 59.1838 75.1608 58.2814C75.1608 57.44 74.9108 56.7328 74.4109 56.1597C73.9231 55.5865 73.2037 55.0988 72.2525 54.6964C71.3136 54.294 70.1612 53.9281 68.7955 53.5989L64.7166 52.5746C61.5583 51.8064 59.0647 50.6053 57.2355 48.9713C55.4064 47.3373 54.498 45.1362 54.5102 42.3682C54.498 40.1001 55.1016 38.1186 56.321 36.4236C57.5526 34.7286 59.2415 33.4056 61.3876 32.4544C63.5338 31.5033 65.9726 31.0277 68.7041 31.0277C71.4843 31.0277 73.9109 31.5033 75.9839 32.4544C78.0691 33.4056 79.6909 34.7286 80.8493 36.4236C82.0078 38.1186 82.6053 40.0818 82.6419 42.3133H75.0511Z" fill="white"/>
<rect x="2" y="2" width="96" height="96" stroke="white" stroke-width="4"/>
</svg>
